HIERARCHY
ROOT Hips
{
	OFFSET -0.001795 -0.223333 0.028219
	CHANNELS 6 Xposition Yposition Zposition Zrotation Yrotation Xrotation 
	JOINT LeftUpLeg
	{
		OFFSET 0.069520 -0.091406 -0.006815
		CHANNELS 3 Zrotation Yrotation Xrotation
		JOINT LeftLeg
		{
			OFFSET 0.034277 -0.375199 -0.004496
			CHANNELS 3 Zrotation Yrotation Xrotation
			JOINT LeftFoot
			{
				OFFSET -0.013596 -0.397961 -0.043693
				CHANNELS 3 Zrotation Yrotation Xrotation
				JOINT LeftToe
				{
					OFFSET 0.026358 -0.055791 0.119288
					CHANNELS 3 Zrotation Yrotation Xrotation
					End Site
					{
						OFFSET 0.000000 0.000000 0.000000
					}
				}
			}
		}
	}
	JOINT RightUpLeg
	{
		OFFSET -0.067670 -0.090522 -0.004320
		CHANNELS 3 Zrotation Yrotation Xrotation
		JOINT RightLeg
		{
			OFFSET -0.038290 -0.382569 -0.008850
			CHANNELS 3 Zrotation Yrotation Xrotation
			JOINT RightFoot
			{
				OFFSET 0.015774 -0.398415 -0.042312
				CHANNELS 3 Zrotation Yrotation Xrotation
				JOINT RightToe
				{
					OFFSET -0.025372 -0.048144 0.123348
					CHANNELS 3 Zrotation Yrotation Xrotation
					End Site
					{
						OFFSET 0.000000 0.000000 0.000000
					}
				}
			}
		}
	}
	JOINT Spine
	{
		OFFSET -0.002533 0.108963 -0.026696
		CHANNELS 3 Zrotation Yrotation Xrotation
		JOINT Spine1
		{
			OFFSET 0.005487 0.135180 0.001092
			CHANNELS 3 Zrotation Yrotation Xrotation
			JOINT Spine2
			{
				OFFSET 0.001457 0.052922 0.025425
				CHANNELS 3 Zrotation Yrotation Xrotation
				JOINT Neck
				{
					OFFSET -0.002778 0.213870 -0.042857
					CHANNELS 3 Zrotation Yrotation Xrotation
					JOINT Head
					{
						OFFSET 0.005152 0.064970 0.051349
						CHANNELS 3 Zrotation Yrotation Xrotation
						End Site
						{
							OFFSET 0.000000 0.000000 0.000000
						}
					}
				}
				JOINT LeftShoulder
				{
					OFFSET 0.078845 0.121749 -0.034090
					CHANNELS 3 Zrotation Yrotation Xrotation
					JOINT LeftArm
					{
						OFFSET 0.090977 0.030469 -0.008868
						CHANNELS 3 Zrotation Yrotation Xrotation
						JOINT LeftForeArm
						{
							OFFSET 0.259612 -0.012772 -0.027456
							CHANNELS 3 Zrotation Yrotation Xrotation
							JOINT LeftHand
							{
								OFFSET 0.249234 0.008986 -0.001171
								CHANNELS 3 Zrotation Yrotation Xrotation
								End Site
								{
									OFFSET 0.000000 0.000000 0.000000
								}
							}
						}
					}
				}
				JOINT RightShoulder
				{
					OFFSET -0.081759 0.118833 -0.038615
					CHANNELS 3 Zrotation Yrotation Xrotation
					JOINT RightArm
					{
						OFFSET -0.096012 0.032551 -0.009143
						CHANNELS 3 Zrotation Yrotation Xrotation
						JOINT RightForeArm
						{
							OFFSET -0.253742 -0.013329 -0.021401
							CHANNELS 3 Zrotation Yrotation Xrotation
							JOINT RightHand
							{
								OFFSET -0.255298 0.007772 -0.005559
								CHANNELS 3 Zrotation Yrotation Xrotation
								End Site
								{
									OFFSET 0.000000 0.000000 0.000000
								}
							}
						}
					}
				}
			}
		}
	}
}
MOTION
Frames: 5
Frame Time: 0.050000
-0.348459 0.890359 0.663080 10.556207 51.004931 17.268599 -12.646854 -8.225635 -28.055392 2.329924 -4.748296 25.397785 -1.122950 -21.199162 -10.719392 0.000000 0.000000 0.000000 -15.708524 -7.458947 -26.987924 -12.904295 0.585464 31.767170 9.469791 22.118561 -8.386967 0.000000 0.000000 0.000000 9.719870 -2.699056 10.337595 -2.879456 -3.358140 16.088370 0.916934 29.471690 -7.844955 12.922867 -2.217817 -16.663936 0.000000 0.000000 0.000000 -31.229606 -18.399394 -15.170582 -28.034306 28.789813 -3.781767 -10.290137 -32.840851 1.674351 0.000000 0.000000 0.000000 34.885656 22.225194 36.536337 -5.136524 20.315828 -2.496776 -6.688758 2.159074 -0.024056 0.000000 0.000000 0.000000 
-0.368903 0.874457 0.676211 13.679790 57.118425 19.150575 -12.003842 -9.878911 -30.583552 -0.136608 -6.537630 31.720511 2.723871 -16.796843 -14.517943 0.000000 0.000000 0.000000 -16.380621 -8.702116 -25.653932 -15.372756 -0.132228 35.712758 10.974355 25.801651 -11.742851 0.000000 0.000000 0.000000 11.915079 -4.074682 12.954934 -2.838076 -3.206663 14.039054 0.641054 30.681305 -6.093820 14.980875 -1.917934 -19.392684 0.000000 0.000000 0.000000 -31.876849 -19.714813 -16.930851 -25.854704 28.034308 -2.702673 -14.931460 -30.265476 2.884875 0.000000 0.000000 0.000000 32.577792 20.305882 35.113946 -6.637573 20.856921 -2.568790 -6.019615 1.038172 0.051380 0.000000 0.000000 0.000000 
-0.390037 0.860231 0.689597 17.312349 61.237567 22.197962 -11.882217 -11.089965 -32.155255 -2.382465 -7.383079 34.967793 5.136505 -12.883959 -16.562247 0.000000 0.000000 0.000000 -17.198341 -9.874476 -25.289714 -15.631326 -1.624610 39.713585 9.586152 24.980250 -17.620723 0.000000 0.000000 0.000000 12.868358 -5.137129 14.675175 -2.069483 -4.290322 14.804566 -1.574115 31.599220 -8.517073 16.910413 -3.103262 -19.004959 0.000000 0.000000 0.000000 -30.907710 -20.026826 -17.013107 -26.869802 28.392637 -2.979732 -15.800417 -29.421564 2.836677 0.000000 0.000000 0.000000 30.752193 19.875094 34.367815 -7.079173 21.294683 -2.581275 -5.860939 -0.448748 0.141229 0.000000 0.000000 0.000000 
-0.410750 0.849731 0.703288 19.246356 63.398435 23.089913 -10.196133 -11.107523 -32.953939 -4.838448 -8.089911 38.272463 7.192773 -9.973490 -18.994261 0.000000 0.000000 0.000000 -16.683190 -10.782555 -26.852952 -17.559602 -2.213655 44.198409 9.840196 27.400792 -19.449329 0.000000 0.000000 0.000000 13.482211 -5.858992 15.859720 -2.344730 -4.525305 15.361157 -2.199147 32.979920 -9.842894 16.096028 -2.643349 -18.799394 0.000000 0.000000 0.000000 -30.442331 -19.222230 -17.765489 -27.086978 27.685778 -2.919067 -16.249143 -28.175500 2.770131 0.000000 0.000000 0.000000 30.648513 19.190372 34.359296 -6.741085 20.998655 -2.492798 -6.610450 -1.179352 0.207951 0.000000 0.000000 0.000000 
-0.430474 0.841297 0.717773 21.605540 64.815498 24.811498 -9.319516 -11.019274 -33.090662 -5.866820 -8.311894 39.101774 8.576805 -9.001923 -20.944003 0.000000 0.000000 0.000000 -16.204502 -11.824418 -28.655182 -18.760864 -2.908175 48.387858 8.899362 27.536836 -21.903467 0.000000 0.000000 0.000000 13.649850 -6.378671 16.858502 -2.169805 -4.486183 14.661017 -1.858652 32.422146 -9.613280 14.811915 -2.056697 -18.354441 0.000000 0.000000 0.000000 -29.991272 -19.045309 -17.742445 -28.677820 27.247426 -3.201722 -14.314447 -27.474471 2.079225 0.000000 0.000000 0.000000 30.098294 19.712036 34.331591 -6.696109 21.250018 -2.495300 -7.346076 -0.539789 0.183396 0.000000 0.000000 0.000000 
